{"title":"Selena Gomez - Love You Like A Love Song + Hit the Lights (MTV N","uid":7009683,"size":548818624,"categoryP":"video","categoryS":"other","magnet":"?xt=urn:btih:03d5c56b6729d15cea6227bd4c5b53c1f61ae41d&amp;dn=Selena+Gomez+-+Love+You+Like+A+Love+Song+%2B+Hit+the+Lights+%28MTV+N&amp;tr=udp%3A%2F%2Ftracker.openbittorrent.com%3A80&amp;tr=udp%3A%2F%2Fopen.demonii.com%3A1337&amp;tr=udp%3A%2F%2Ftracker.coppersurfer.tk%3A6969&amp;tr=udp%3A%2F%2Fexodus.desync.com%3A6969","seeders":1,"leechers":0,"uploader":null,"files":1,"time":1328404308,"description":"Format                           : MPEG-TS\nFile size                        : 523 MiB\nDuration                         : 4mn 20s\nOverall bit rate mode            : Variable\nOverall bit rate                 : 16.8 Mbps\n\nVideo\nID                               : 552 (0x228)\nMenu ID                          : 1 (0x1)\nFormat                           : MPEG Video\nFormat version                   : Version 2\nFormat profile                   : Main@High\nFormat settings, BVOP            : Yes\nFormat settings, Matrix          : Custom\nCodec ID                         : 2\nDuration                         : 4mn 20s\nBit rate mode                    : Variable\nBit rate                         : 15.6 Mbps\nMaximum bit rate                 : 18.0 Mbps\nWidth                            : 1 920 pixels\nHeight                           : 1 080 pixels\nDisplay aspect ratio             : 16:9\nFrame rate                       : 29.970 fps\nColor space                      : YUV\nChroma subsampling               : 4:2:0\nBit depth                        : 8 bits\nScan type                        : Interlaced\nScan order                       : Top Field First\nCompression mode                 : Lossy\nBits/(Pixel*Frame)               : 0.251\nStream size                      : 485 MiB (93%)\n\nAudio\nID                               : 551 (0x227)\nMenu ID                          : 1 (0x1)\nFormat                           : AC-3\nFormat/Info                      : Audio Coding 3\nMode extension                   : CM (complete main)\nCodec ID                         : 129\nDuration                         : 4mn 20s\nBit rate mode                    : Constant\nBit rate                         : 384 Kbps\nChannel(s)                       : 2 channels\nChannel positions                : Front: L R\nSampling rate                    : 48.0 KHz\nBit depth                        : 16 bits\nCompression mode                 : Lossy\nStream size                      : 11.9 MiB (2%)\nLanguage                         : English\n","torrent":{"xt":"urn:btih:03d5c56b6729d15cea6227bd4c5b53c1f61ae41d","amp;dn":"Selena+Gomez+-+Love+You+Like+A+Love+Song+%2B+Hit+the+Lights+%28MTV+N","amp;tr":["udp%3A%2F%2Ftracker.openbittorrent.com%3A80","udp%3A%2F%2Fopen.demonii.com%3A1337","udp%3A%2F%2Ftracker.coppersurfer.tk%3A6969","udp%3A%2F%2Fexodus.desync.com%3A6969"],"infoHash":"03d5c56b6729d15cea6227bd4c5b53c1f61ae41d","infoHashBuffer":{"type":"Buffer","data":[3,213,197,107,103,41,209,92,234,98,39,189,76,91,83,193,246,26,228,29]},"announce":[],"urlList":[]}}